<svg xmlns="http://www.w3.org/2000/svg" xmlns:xlink="http://www.w3.org/1999/xlink" width="500" zoomAndPan="magnify" viewBox="0 0 375 374.999991" height="500" preserveAspectRatio="xMidYMid meet" version="1.0">
<defs><g/><clipPath id="10f20c3393">
    <path d="M 97.609375 111 L 273 111 L 273 192 L 97.609375 192 Z M 97.609375 111 " clip-rule="nonzero"/>
    </clipPath></defs><rect x="-37.5" width="450" fill="#f10985" y="-37.499999" height="449.999989" fill-opacity="1"/><rect x="-37.5" width="450" fill="#e70101" y="-37.499999" height="449.999989" fill-opacity="1"/><rect x="-37.5" width="450" fill="#ffffff" y="-37.499999" height="449.999989" fill-opacity="1"/>
    <g fill="#000000" fill-opacity="1"><g transform="translate(178.140062, 255.844759)"><g><path d="M 38.234375 -80.84375 L 36.0625 -81.09375 L 26.78125 -81.5625 L 23.34375 -81.6875 L 19.859375 -81.640625 C 15.441406 -81.328125 10.914062 -80.535156 6.28125 -79.265625 C 4.695312 -78.816406 2.972656 -78.476562 1.109375 -78.25 L 0.078125 -78.078125 L -0.890625 -77.90625 C -3.210938 -77.28125 -5.984375 -76.671875 -9.203125 -76.078125 L -10.390625 -75.875 L -11.578125 -75.703125 C -12.347656 -75.554688 -12.644531 -75.332031 -12.46875 -75.03125 C -12.382812 -74.851562 -12.242188 -74.738281 -12.046875 -74.6875 L -11.546875 -74.59375 C -9.140625 -74.394531 -7.3125 -74.382812 -6.0625 -74.5625 C -4.757812 -74.726562 -3.375 -74.835938 -1.90625 -74.890625 L 0.296875 -74.9375 L 2.546875 -74.9375 C 4.296875 -75 5.78125 -75.128906 7 -75.328125 L 7.515625 -75.359375 C 7.878906 -75.335938 8.085938 -75.15625 8.140625 -74.8125 L 8.234375 -74.09375 C 8.203125 -70.894531 8.328125 -67.867188 8.609375 -65.015625 L 8.703125 -63.09375 L 8.65625 -61.1875 L 8.734375 -57.453125 L 8.875 -53.71875 L 9.03125 -49.8125 L 9.078125 -45.921875 L 9.125 -41.15625 L 9.078125 -36.453125 L 8.875 -25 L 8.703125 -22.234375 L 8.578125 -19.515625 L 8.609375 -12.515625 L 8.65625 -5.515625 C 8.65625 -1.953125 8.867188 0.832031 9.296875 2.84375 L 9.5 4.546875 L 9.765625 6.234375 L 10.015625 7.21875 L 10.3125 8.140625 C 10.5625 8.960938 11.097656 9.390625 11.921875 9.421875 C 12.378906 9.453125 12.90625 9.550781 13.5 9.71875 C 14.226562 9.914062 15.003906 9.882812 15.828125 9.625 L 17.5625 9 C 18.25 8.71875 18.890625 8.53125 19.484375 8.4375 C 20.753906 8.238281 21.613281 7.546875 22.0625 6.359375 C 22.488281 5.203125 23.195312 3.945312 24.1875 2.59375 C 24.925781 1.539062 25.421875 0.179688 25.671875 -1.484375 L 26.140625 -5.09375 L 26.6875 -9.765625 C 26.800781 -10.578125 26.84375 -11.523438 26.8125 -12.609375 L 26.734375 -15.40625 C 26.679688 -17.632812 26.554688 -19.628906 26.359375 -21.390625 L 26.09375 -23.84375 L 25.921875 -26.3125 C 25.898438 -30.019531 25.5625 -33.820312 24.90625 -37.71875 C 24.769531 -38.65625 24.671875 -39.859375 24.609375 -41.328125 L 24.4375 -44.984375 L 24.359375 -47.3125 L 24.265625 -49.6875 L 23.96875 -54.3125 L 23.8125 -58.9375 C 23.8125 -59.613281 23.722656 -60.148438 23.546875 -60.546875 C 22.898438 -61.960938 22.703125 -63.4375 22.953125 -64.96875 L 23 -65.78125 L 22.953125 -66.625 C 22.867188 -67.46875 22.882812 -68.1875 23 -68.78125 C 23.164062 -69.488281 23.140625 -70.453125 22.921875 -71.671875 L 22.65625 -73.375 L 22.484375 -75.109375 C 22.429688 -75.585938 22.675781 -75.859375 23.21875 -75.921875 L 23.765625 -75.953125 C 26.253906 -76.128906 28.585938 -76.5 30.765625 -77.0625 C 33.109375 -77.65625 34.960938 -77.910156 36.328125 -77.828125 L 38.0625 -77.90625 L 39.765625 -78.171875 C 40.523438 -78.273438 40.90625 -78.679688 40.90625 -79.390625 C 40.90625 -79.847656 40.59375 -80.175781 39.96875 -80.375 Z M 38.234375 -80.84375 "/></g></g></g><g clip-path="url(#10f20c3393)"><path fill="#040606" d="M 110.152344 163.199219 C 110.152344 162.992188 109.964844 162.820312 109.734375 162.820312 C 109.503906 162.820312 109.320312 162.992188 109.320312 163.199219 C 109.320312 163.410156 109.503906 163.578125 109.734375 163.578125 C 109.964844 163.578125 110.152344 163.410156 110.152344 163.199219 Z M 107.628906 154.433594 C 107.671875 154.339844 107.601562 154.214844 107.46875 154.152344 C 107.335938 154.089844 107.191406 154.117188 107.148438 154.210938 C 107.105469 154.304688 107.175781 154.433594 107.308594 154.496094 C 107.441406 154.554688 107.582031 154.53125 107.628906 154.433594 Z M 108.335938 154.472656 C 108.335938 154.746094 108.503906 154.964844 108.714844 154.964844 C 108.921875 154.964844 109.09375 154.746094 109.09375 154.472656 C 109.09375 154.203125 108.921875 153.984375 108.714844 153.984375 C 108.503906 153.984375 108.335938 154.203125 108.335938 154.472656 Z M 109.09375 151.074219 C 109.09375 150.886719 108.957031 150.734375 108.789062 150.734375 C 108.621094 150.734375 108.484375 150.886719 108.484375 151.074219 C 108.484375 151.261719 108.621094 151.414062 108.789062 151.414062 C 108.957031 151.414062 109.09375 151.261719 109.09375 151.074219 Z M 118.976562 171.511719 C 119.121094 171.511719 119.242188 171.359375 119.242188 171.171875 C 119.242188 170.980469 119.121094 170.828125 118.976562 170.828125 C 118.828125 170.828125 118.710938 170.980469 118.710938 171.171875 C 118.710938 171.359375 118.828125 171.511719 118.976562 171.511719 Z M 115.757812 169.355469 C 115.757812 169.167969 115.6875 169.015625 115.605469 169.015625 C 115.523438 169.015625 115.453125 169.167969 115.453125 169.355469 C 115.453125 169.542969 115.523438 169.695312 115.605469 169.695312 C 115.6875 169.695312 115.757812 169.542969 115.757812 169.355469 Z M 115.074219 171.09375 C 115.074219 171.28125 115.195312 171.433594 115.339844 171.433594 C 115.488281 171.433594 115.605469 171.28125 115.605469 171.09375 C 115.605469 170.90625 115.488281 170.753906 115.339844 170.753906 C 115.195312 170.753906 115.074219 170.90625 115.074219 171.09375 Z M 118.40625 171.964844 C 118.199219 171.964844 118.027344 172.132812 118.027344 172.339844 C 118.027344 172.550781 118.199219 172.71875 118.40625 172.71875 C 118.617188 172.71875 118.785156 172.550781 118.785156 172.339844 C 118.785156 172.132812 118.617188 171.964844 118.40625 171.964844 Z M 120.453125 170.492188 C 120.453125 170.261719 120.300781 170.074219 120.113281 170.074219 C 119.921875 170.074219 119.769531 170.261719 119.769531 170.492188 C 119.769531 170.71875 119.921875 170.90625 120.113281 170.90625 C 120.300781 170.90625 120.453125 170.71875 120.453125 170.492188 Z M 167.9375 141.59375 C 167.9375 141.300781 167.71875 141.066406 167.445312 141.066406 C 167.171875 141.066406 166.953125 141.300781 166.953125 141.59375 C 166.953125 141.886719 167.171875 142.121094 167.445312 142.121094 C 167.71875 142.121094 167.9375 141.886719 167.9375 141.59375 Z M 172.253906 144.390625 C 172.085938 144.390625 171.953125 144.523438 171.953125 144.691406 C 171.953125 144.859375 172.085938 144.992188 172.253906 144.992188 C 172.421875 144.992188 172.554688 144.859375 172.554688 144.691406 C 172.554688 144.523438 172.421875 144.390625 172.253906 144.390625 Z M 172.214844 142.199219 C 171.984375 142.199219 171.800781 142.351562 171.800781 142.539062 C 171.800781 142.726562 171.984375 142.878906 172.214844 142.878906 C 172.445312 142.878906 172.632812 142.726562 172.632812 142.539062 C 172.632812 142.351562 172.445312 142.199219 172.214844 142.199219 Z M 175.359375 144.464844 C 175.359375 144.339844 175.207031 144.238281 175.019531 144.238281 C 174.828125 144.238281 174.675781 144.339844 174.675781 144.464844 C 174.675781 144.589844 174.828125 144.691406 175.019531 144.691406 C 175.207031 144.691406 175.359375 144.589844 175.359375 144.464844 Z M 172.933594 143.9375 C 173.1875 143.9375 173.390625 143.765625 173.390625 143.558594 C 173.390625 143.347656 173.1875 143.179688 172.933594 143.179688 C 172.683594 143.179688 172.480469 143.347656 172.480469 143.558594 C 172.480469 143.765625 172.683594 143.9375 172.933594 143.9375 Z M 170.132812 142.046875 C 170.132812 141.753906 169.980469 141.519531 169.792969 141.519531 C 169.605469 141.519531 169.453125 141.753906 169.453125 142.046875 C 169.453125 142.339844 169.605469 142.574219 169.792969 142.574219 C 169.980469 142.574219 170.132812 142.339844 170.132812 142.046875 Z M 122.824219 163.277344 C 122.824219 163.023438 122.597656 162.820312 122.320312 162.820312 C 122.042969 162.820312 121.816406 163.023438 121.816406 163.277344 C 121.816406 163.527344 122.042969 163.730469 122.320312 163.730469 C 122.597656 163.730469 122.824219 163.527344 122.824219 163.277344 Z M 140.800781 157.382812 C 140.800781 157.105469 140.597656 156.878906 140.34375 156.878906 C 140.09375 156.878906 139.890625 157.105469 139.890625 157.382812 C 139.890625 157.660156 140.09375 157.886719 140.34375 157.886719 C 140.597656 157.886719 140.800781 157.660156 140.800781 157.382812 Z M 131.105469 162.015625 C 131.105469 161.738281 130.855469 161.511719 130.550781 161.511719 C 130.242188 161.511719 129.996094 161.738281 129.996094 162.015625 C 129.996094 162.296875 130.242188 162.519531 130.550781 162.519531 C 130.855469 162.519531 131.105469 162.296875 131.105469 162.015625 Z M 137.972656 164.535156 C 137.972656 164.257812 137.769531 164.03125 137.515625 164.03125 C 137.265625 164.03125 137.0625 164.257812 137.0625 164.535156 C 137.0625 164.8125 137.265625 165.039062 137.515625 165.039062 C 137.769531 165.039062 137.972656 164.8125 137.972656 164.535156 Z M 145.949219 159.449219 C 145.949219 159.140625 145.710938 158.894531 145.417969 158.894531 C 145.125 158.894531 144.886719 159.140625 144.886719 159.449219 C 144.886719 159.753906 145.125 160.003906 145.417969 160.003906 C 145.710938 160.003906 145.949219 159.753906 145.949219 159.449219 Z M 143.929688 157.308594 C 143.929688 156.765625 143.53125 156.324219 143.046875 156.324219 C 142.558594 156.324219 142.164062 156.765625 142.164062 157.308594 C 142.164062 157.847656 142.558594 158.289062 143.046875 158.289062 C 143.53125 158.289062 143.929688 157.847656 143.929688 157.308594 Z M 149.632812 153.429688 C 149.632812 152.960938 149.15625 152.597656 148.550781 152.597656 C 147.941406 152.597656 147.464844 152.960938 147.464844 153.429688 C 147.464844 153.894531 147.941406 154.261719 148.550781 154.261719 C 149.15625 154.261719 149.632812 153.894531 149.632812 153.429688 Z M 157.359375 147.570312 C 157.449219 147.316406 157.433594 147.023438 157.3125 146.765625 C 157.078125 146.265625 156.507812 146.027344 156.039062 146.246094 C 155.828125 146.34375 155.667969 146.527344 155.582031 146.753906 C 155.492188 147.007812 155.507812 147.300781 155.628906 147.554688 C 155.742188 147.792969 155.929688 147.980469 156.160156 148.082031 C 156.285156 148.132812 156.40625 148.160156 156.53125 148.160156 C 156.660156 148.160156 156.785156 148.132812 156.902344 148.078125 C 157.113281 147.976562 157.277344 147.796875 157.359375 147.570312 Z M 159.023438 144.917969 C 159.183594 144.988281 159.355469 145.023438 159.523438 145.023438 C 159.695312 145.023438 159.863281 144.984375 160.019531 144.914062 C 160.332031 144.765625 160.558594 144.496094 160.660156 144.148438 C 160.757812 143.816406 160.726562 143.453125 160.574219 143.125 C 160.417969 142.796875 160.15625 142.539062 159.839844 142.398438 C 159.507812 142.257812 159.152344 142.261719 158.839844 142.40625 C 158.210938 142.699219 157.964844 143.5 158.289062 144.191406 C 158.441406 144.523438 158.703125 144.777344 159.023438 144.917969 Z M 267.601562 149.835938 C 267.671875 149.226562 267.839844 148.617188 268.050781 148.019531 C 268.253906 147.4375 268.554688 146.808594 268.695312 146.105469 C 268.851562 145.445312 268.839844 144.519531 268.226562 143.894531 C 267.640625 143.304688 266.910156 143.148438 266.410156 142.871094 C 266.148438 142.734375 266.023438 142.597656 265.988281 142.449219 C 265.953125 142.285156 266.011719 142.015625 266.125 141.753906 C 266.355469 141.21875 266.726562 140.699219 267.105469 140.179688 C 267.933594 139.042969 268.394531 137.664062 268.476562 136.292969 C 268.582031 134.917969 268.375 133.550781 268 132.253906 C 267.234375 129.660156 265.761719 127.3125 263.835938 125.429688 C 262.863281 124.5 261.769531 123.683594 260.558594 123.070312 C 259.367188 122.4375 257.976562 122.09375 256.738281 121.863281 C 254.214844 121.273438 251.796875 120.253906 249.40625 119.15625 C 251.609375 120.585938 253.992188 121.789062 256.554688 122.542969 C 257.191406 122.742188 257.847656 122.886719 258.441406 123.054688 C 259.042969 123.246094 259.636719 123.480469 260.199219 123.773438 C 261.324219 124.351562 262.351562 125.128906 263.265625 126.015625 C 265.074219 127.808594 266.460938 130.058594 267.160156 132.496094 C 267.859375 134.902344 267.832031 137.648438 266.386719 139.65625 C 266.003906 140.199219 265.605469 140.753906 265.320312 141.425781 C 265.1875 141.761719 265.054688 142.15625 265.148438 142.640625 C 265.269531 143.148438 265.695312 143.46875 266.011719 143.621094 C 266.667969 143.945312 267.28125 144.101562 267.628906 144.46875 C 267.972656 144.808594 268.023438 145.359375 267.898438 145.949219 C 267.789062 146.539062 267.527344 147.105469 267.300781 147.757812 C 267.082031 148.398438 266.90625 149.0625 266.832031 149.753906 C 266.753906 150.445312 266.824219 151.179688 267.035156 151.839844 C 267.242188 152.507812 267.492188 153.035156 267.324219 153.558594 C 267.027344 154.667969 265.789062 155.5 265.226562 156.773438 C 264.636719 158.011719 264.40625 159.347656 264.238281 160.640625 C 264.070312 161.941406 263.933594 163.242188 263.492188 164.460938 C 263.058594 165.675781 262.230469 166.753906 261.113281 167.457031 C 262.273438 166.835938 263.203125 165.78125 263.703125 164.542969 C 264.21875 163.3125 264.421875 161.988281 264.65625 160.707031 C 264.886719 159.425781 265.132812 158.144531 265.71875 157.023438 C 266.011719 156.453125 266.382812 155.988281 266.835938 155.5 C 267.277344 155 267.730469 154.46875 267.964844 153.742188 C 268.082031 153.378906 268.082031 152.960938 268.003906 152.605469 C 267.925781 152.25 267.8125 151.9375 267.734375 151.636719 C 267.566406 151.042969 267.535156 150.449219 267.601562 149.835938 Z M 260.636719 161.757812 C 260.710938 160.613281 261.03125 159.527344 261.675781 158.613281 C 262.332031 157.746094 263.285156 156.929688 263.996094 155.894531 C 264.324219 155.359375 264.675781 154.804688 264.769531 154.101562 C 264.894531 153.40625 264.640625 152.65625 264.355469 152.144531 C 264.222656 151.875 264.121094 151.640625 264.085938 151.449219 C 264.085938 151.265625 264.101562 151.09375 264.246094 150.898438 C 264.351562 150.703125 264.574219 150.523438 264.753906 150.332031 C 264.976562 150.125 265.207031 149.933594 265.425781 149.710938 C 265.851562 149.269531 266.308594 148.828125 266.59375 148.148438 C 266.734375 147.8125 266.792969 147.386719 266.679688 146.996094 C 266.566406 146.613281 266.34375 146.3125 266.113281 146.066406 C 265.152344 145.132812 264.046875 144.636719 262.96875 144.101562 L 262.15625 143.722656 C 261.921875 143.605469 261.703125 143.46875 261.515625 143.300781 C 261.140625 142.957031 260.894531 142.488281 260.757812 141.96875 C 260.484375 140.910156 260.5625 139.726562 260.675781 138.566406 C 260.921875 136.230469 261.449219 133.875 261.421875 131.457031 C 261.402344 130.253906 261.222656 129.023438 260.703125 127.921875 C 260.203125 126.808594 259.285156 125.929688 258.238281 125.375 C 259.238281 126.015625 260.0625 126.929688 260.484375 128.015625 C 260.921875 129.101562 261.027344 130.285156 260.980469 131.453125 C 260.914062 133.800781 260.324219 136.105469 259.988281 138.480469 C 259.832031 139.667969 259.683594 140.902344 259.996094 142.164062 C 260.152344 142.789062 260.464844 143.421875 260.96875 143.890625 C 261.222656 144.121094 261.503906 144.304688 261.804688 144.457031 L 262.609375 144.84375 C 263.644531 145.363281 264.738281 145.910156 265.480469 146.65625 C 265.851562 147.046875 265.945312 147.402344 265.773438 147.820312 C 265.597656 148.246094 265.191406 148.671875 264.789062 149.066406 C 264.589844 149.269531 264.367188 149.464844 264.15625 149.664062 C 263.925781 149.90625 263.679688 150.105469 263.492188 150.433594 C 263.28125 150.71875 263.167969 151.167969 263.214844 151.566406 C 263.285156 151.964844 263.449219 152.269531 263.578125 152.53125 C 263.863281 153.050781 264 153.492188 263.929688 153.984375 C 263.878906 154.476562 263.59375 154.96875 263.304688 155.4375 C 262.679688 156.378906 261.804688 157.136719 261.027344 158.164062 C 260.292969 159.207031 259.964844 160.496094 259.9375 161.71875 C 259.894531 162.949219 260.046875 164.128906 260.011719 165.289062 C 259.984375 166.441406 259.777344 167.597656 259.195312 168.601562 C 258.128906 170.683594 256.105469 172.117188 254.148438 173.425781 L 255.695312 172.523438 C 256.214844 172.230469 256.664062 171.832031 257.15625 171.484375 C 257.652344 171.144531 258.042969 170.675781 258.496094 170.273438 C 258.875 169.808594 259.292969 169.355469 259.585938 168.816406 C 260.246094 167.773438 260.515625 166.519531 260.585938 165.3125 C 260.664062 164.097656 260.550781 162.902344 260.636719 161.757812 Z M 176.039062 133.410156 C 175.539062 133.410156 175.132812 133.792969 175.132812 134.265625 C 175.132812 134.738281 175.539062 135.121094 176.039062 135.121094 C 176.542969 135.121094 176.949219 134.738281 176.949219 134.265625 C 176.949219 133.792969 176.542969 133.410156 176.039062 133.410156 Z M 163.519531 131.09375 C 163.128906 131.09375 162.8125 131.410156 162.8125 131.796875 C 162.8125 132.1875 163.128906 132.503906 163.519531 132.503906 C 163.910156 132.503906 164.226562 132.1875 164.226562 131.796875 C 164.226562 131.410156 163.910156 131.09375 163.519531 131.09375 Z M 166.699219 128.875 C 166.558594 128.875 166.449219 129.035156 166.449219 129.230469 C 166.449219 129.425781 166.558594 129.582031 166.699219 129.582031 C 166.839844 129.582031 166.953125 129.425781 166.953125 129.230469 C 166.953125 129.035156 166.839844 128.875 166.699219 128.875 Z M 114.34375 134.667969 C 114.34375 134.308594 114.09375 134.015625 113.789062 134.015625 C 113.480469 134.015625 113.230469 134.308594 113.230469 134.667969 C 113.230469 135.03125 113.480469 135.324219 113.789062 135.324219 C 114.09375 135.324219 114.34375 135.03125 114.34375 134.667969 Z M 114.242188 136.632812 C 114.242188 136.910156 114.582031 137.136719 115 137.136719 C 115.417969 137.136719 115.757812 136.910156 115.757812 136.632812 C 115.757812 136.355469 115.417969 136.128906 115 136.128906 C 114.582031 136.128906 114.242188 136.355469 114.242188 136.632812 Z M 116.613281 133.511719 C 116.363281 133.511719 116.160156 133.667969 116.160156 133.863281 C 116.160156 134.058594 116.363281 134.214844 116.613281 134.214844 C 116.867188 134.214844 117.070312 134.058594 117.070312 133.863281 C 117.070312 133.667969 116.867188 133.511719 116.613281 133.511719 Z M 251.675781 140.761719 C 250.660156 139.652344 249.449219 139.457031 249.449219 138.25 C 249.449219 137.039062 247.230469 136.738281 247.628906 134.816406 C 248.042969 132.90625 247.535156 132.699219 246.625 132 C 245.714844 131.296875 243.292969 130.488281 245.109375 129.980469 C 246.925781 129.484375 246.722656 127.164062 246.722656 127.164062 C 246.722656 127.164062 242.6875 126.355469 243.386719 125.652344 C 244.105469 124.953125 246.417969 124.542969 245.8125 124.238281 C 245.207031 123.9375 241.570312 124.445312 242.6875 123.441406 C 243.800781 122.425781 245.011719 121.929688 244.808594 120.613281 C 244.601562 119.308594 242.285156 117.492188 242.078125 118.703125 C 241.875 119.910156 241.875 121.519531 240.566406 120.613281 C 239.257812 119.707031 235.511719 118.910156 237.230469 119.816406 C 238.953125 120.722656 237.632812 122.726562 236.722656 121.929688 C 235.816406 121.121094 234.203125 120.816406 234.808594 120.007812 C 235.414062 119.210938 234.808594 117.796875 234.109375 118.402344 C 233.390625 119.003906 233.089844 121.023438 231.984375 121.023438 C 230.871094 121.023438 228.75 122.027344 228.75 120.722656 C 228.75 119.402344 230.058594 118.800781 229.453125 118.195312 C 228.847656 117.589844 224.8125 116.890625 225.113281 117.894531 C 225.417969 118.910156 224.207031 119.101562 223.203125 119.308594 C 222.183594 119.511719 222.292969 121.519531 221.175781 120.308594 C 220.0625 119.101562 218.148438 118.496094 218.453125 119.609375 C 218.753906 120.722656 218.453125 122.027344 217.636719 121.820312 C 216.839844 121.628906 215.023438 123.03125 215.117188 121.519531 C 215.214844 120.007812 213.703125 118.496094 212.902344 120.613281 C 212.089844 122.726562 210.480469 118.605469 208.964844 121.023438 C 207.449219 123.441406 207.242188 123.632812 206.734375 124.445312 C 206.234375 125.253906 206.128906 127.066406 205.027344 126.257812 C 203.910156 125.449219 203.207031 125.144531 203.910156 123.332031 C 204.613281 121.519531 203.402344 120.613281 205.933594 118.195312 C 204.417969 117.289062 200.675781 123.9375 199.667969 125.449219 C 198.664062 126.957031 198.457031 127.371094 197.246094 129.074219 C 196.035156 130.789062 195.429688 132.300781 194.824219 131.601562 C 194.214844 130.886719 193.210938 129.183594 193.511719 128.167969 C 193.816406 127.164062 193.914062 124.953125 194.519531 124.046875 C 195.125 123.140625 192.605469 124.648438 191.792969 127.164062 C 190.980469 129.679688 191.1875 128.773438 189.878906 130.390625 C 188.558594 132 188.761719 132 187.855469 133.003906 C 186.945312 134.019531 185.941406 134.511719 186.4375 132.699219 C 186.945312 130.886719 185.527344 129.375 185.335938 130.1875 C 185.128906 130.996094 185.832031 133.207031 184.121094 133.414062 C 182.402344 133.605469 181.894531 132.097656 181.796875 133.414062 C 181.699219 134.71875 183.710938 135.625 182.707031 136.53125 C 181.699219 137.4375 180.28125 139.046875 179.773438 137.644531 C 179.277344 136.230469 178.464844 135.832031 178.367188 136.835938 C 178.257812 137.835938 177.253906 139.347656 176.644531 137.644531 C 176.394531 136.933594 176.039062 136.984375 175.613281 137.125 C 175.753906 136.886719 175.839844 136.621094 175.839844 136.332031 C 175.839844 135.441406 175.09375 134.71875 174.171875 134.71875 C 173.632812 134.71875 173.160156 134.96875 172.855469 135.355469 C 172.054688 134.398438 171.941406 134.863281 173.410156 132.507812 C 175.230469 129.582031 177.457031 128.277344 178.160156 127.769531 C 175.941406 128.070312 171.894531 132.699219 171.097656 132.398438 C 170.285156 132.097656 169.980469 131.492188 170.492188 130.886719 C 170.988281 130.28125 172.308594 128.675781 170.792969 129.484375 C 169.277344 130.28125 167.957031 131.09375 167.050781 132.699219 C 166.140625 134.320312 164.734375 134.621094 163.71875 134.621094 C 162.710938 134.621094 160.289062 138.042969 161.101562 135.117188 C 161.898438 132.203125 158.566406 134.816406 158.980469 133.109375 C 159.378906 131.394531 164.832031 127.371094 169.167969 125.351562 C 163.921875 125.859375 156.347656 132.300781 155.136719 135.226562 C 153.925781 138.140625 156.75 137.742188 155.441406 138.949219 C 155.171875 139.199219 154.953125 139.476562 154.753906 139.753906 C 154.414062 139.390625 153.878906 139.152344 153.269531 139.152344 C 152.683594 139.152344 152.167969 139.375 151.824219 139.714844 C 151.332031 138.296875 151.425781 136.175781 153.925781 133.8125 C 151.882812 135.007812 148.964844 138.550781 147.34375 141.75 C 147.234375 141.710938 147.128906 141.667969 147.007812 141.667969 C 146.367188 141.667969 145.847656 142.277344 145.847656 143.027344 C 145.847656 143.5 146.066406 143.898438 146.378906 144.140625 C 146.242188 144.628906 146.160156 145.089844 146.148438 145.5 C 146.109375 146.800781 145.984375 147.488281 145.765625 147.882812 C 145.5625 147.605469 145.210938 147.410156 144.789062 147.410156 L 144.753906 147.414062 C 144.800781 147.285156 144.839844 147.152344 144.839844 147.007812 C 144.839844 146.285156 144.25 145.699219 143.527344 145.699219 C 142.800781 145.699219 142.210938 146.285156 142.210938 147.007812 C 142.210938 147.730469 142.800781 148.316406 143.527344 148.316406 C 143.566406 148.316406 143.601562 148.296875 143.644531 148.292969 C 143.640625 148.320312 143.625 148.339844 143.625 148.367188 C 143.625 148.5625 143.714844 148.730469 143.832031 148.878906 C 143.097656 149.265625 142.789062 149.644531 142.476562 149.976562 C 142.226562 149.828125 141.867188 149.726562 141.457031 149.726562 C 141.410156 149.726562 141.375 149.738281 141.332031 149.742188 C 141.167969 149.097656 140.6875 148.621094 140.09375 148.621094 C 139.367188 148.621094 138.78125 149.320312 138.78125 150.179688 C 138.78125 150.34375 138.820312 150.492188 138.859375 150.636719 C 137.910156 150.601562 134.539062 151.699219 135.542969 150.035156 C 136.757812 148.015625 139.480469 144.292969 139.480469 144.292969 C 139.480469 144.292969 137.566406 143.480469 136.960938 144.898438 C 136.355469 146.296875 135.847656 145.695312 135.046875 146.40625 C 134.234375 147.109375 133.726562 147.917969 133.425781 147.507812 C 133.121094 147.109375 131.8125 149.527344 131.304688 149.621094 C 130.804688 149.730469 129.484375 149.828125 129.691406 149.128906 C 129.898438 148.414062 133.835938 138.042969 160.6875 122.835938 C 150.386719 126.460938 131.910156 136.53125 122.628906 150.941406 C 120.460938 153.5625 119.285156 156.984375 118.417969 159.292969 C 118.167969 158.871094 117.773438 158.59375 117.320312 158.59375 C 116.761719 158.59375 116.277344 159.019531 116.070312 159.628906 C 115.84375 159.496094 115.589844 159.398438 115.300781 159.398438 C 114.925781 159.398438 114.589844 159.539062 114.332031 159.753906 C 114.246094 159.03125 113.90625 159.09375 113.320312 158.945312 C 113.390625 158.714844 113.433594 158.460938 113.433594 158.1875 C 113.433594 157.730469 113.316406 157.3125 113.128906 156.992188 C 114.578125 155.636719 115.074219 155.015625 114.449219 154.457031 C 113.636719 153.757812 113.636719 153.054688 112.726562 152.945312 C 111.820312 152.851562 110.910156 153.453125 111.914062 152.34375 C 112.933594 151.242188 112.519531 149.222656 112.328125 148.621094 C 112.121094 148.015625 122.519531 134.320312 134.742188 125.859375 C 128.988281 128.371094 116.265625 139.15625 113.9375 142.574219 C 118.386719 135.421875 125.246094 130.390625 127.171875 128.675781 C 124.773438 129.414062 117.859375 134.5 113.667969 139.816406 C 113.515625 139.203125 113.050781 138.746094 112.476562 138.746094 C 112.285156 138.746094 112.109375 138.800781 111.949219 138.886719 C 113.101562 136.953125 112.429688 137.519531 112.726562 136.328125 C 113.03125 135.117188 110.304688 134.417969 112.519531 133.304688 C 114.75 132.203125 116.871094 132.097656 115.550781 131.695312 C 114.242188 131.296875 110.304688 132.808594 112.628906 131.09375 C 114.945312 129.375 116.15625 126.160156 135.957031 121.21875 C 130.804688 121.21875 115.054688 127.066406 112.519531 128.976562 C 113.902344 126.933594 118.652344 124.324219 123.828125 122.003906 C 120.253906 122.847656 117.902344 123.632812 117.367188 123.839844 C 115.855469 124.445312 112.023438 125.859375 111.007812 126.957031 C 110 128.070312 109.238281 131.695312 108.632812 132.976562 C 108.027344 134.257812 108.339844 134.644531 109.929688 136.074219 C 111.515625 137.511719 108.632812 139.785156 109.550781 141.136719 C 110.449219 142.503906 108.484375 144.460938 107.808594 145.671875 C 107.128906 146.878906 108.945312 146.660156 110.230469 147.410156 C 111.515625 148.160156 110.535156 149.078125 110.765625 152.015625 C 110.980469 154.964844 110 152.921875 111.210938 154.894531 C 112.425781 156.851562 109.84375 158.058594 109.324219 159.351562 C 108.789062 160.632812 110.449219 160.851562 111.660156 160.9375 C 112.871094 161.007812 112.425781 162.59375 111.441406 164.636719 C 110.449219 166.679688 113.867188 165.3125 113.636719 166 C 113.40625 166.679688 116.738281 167.429688 117.199219 169.023438 C 117.648438 170.605469 118.929688 169.3125 118.859375 167.816406 C 118.785156 166.292969 122.652344 166.292969 120.605469 164.5625 C 118.554688 162.820312 120.144531 161.082031 121.210938 161.007812 C 122.277344 160.9375 122.796875 160.851562 122.796875 158.820312 C 122.796875 156.777344 123.488281 158.964844 125.074219 157.832031 C 126.664062 156.707031 125.597656 158.433594 125.378906 159.570312 C 125.148438 160.707031 127.195312 159.726562 127.875 158.289062 C 128.550781 156.851562 129.316406 159.269531 131.046875 158.964844 C 132.792969 158.664062 132.417969 158.214844 132.574219 159.644531 C 132.71875 161.082031 133.398438 160.03125 134.683594 161.539062 C 135.980469 163.050781 135.519531 162.894531 136.660156 162.144531 C 137.796875 161.382812 137.191406 159.644531 137.796875 157.539062 C 138.402344 155.414062 139.3125 155.871094 139.917969 155.195312 C 140.523438 154.519531 140.667969 154.894531 142.039062 155.195312 C 143.394531 155.496094 142.644531 153.984375 144.003906 154.359375 C 145.371094 154.734375 144.765625 153.601562 144.160156 153.226562 C 143.554688 152.851562 144.304688 151.945312 145.746094 151.640625 C 147.1875 151.339844 146.28125 150.578125 147.566406 149.152344 C 148.847656 147.710938 148.777344 149.453125 149.457031 150.433594 C 150.144531 151.410156 150.289062 152.320312 151.128906 151.035156 C 151.964844 149.757812 152.484375 150.664062 153.550781 151.183594 C 154.605469 151.714844 155.890625 149.453125 155.136719 149.828125 C 154.386719 150.203125 153.695312 147.710938 152.484375 148.621094 C 151.273438 149.527344 151.878906 148.160156 151.574219 145.972656 C 151.273438 143.785156 153.394531 144.847656 153.394531 144.390625 C 153.394531 143.929688 154.386719 143.855469 156.203125 144.460938 C 158.023438 145.066406 156.421875 143.410156 155.515625 142.503906 C 154.605469 141.597656 156.957031 141.367188 157.707031 140.53125 C 158.46875 139.699219 159.378906 138.875 160.445312 139.09375 C 161.5 139.324219 161.5 138.117188 161.875 137.4375 C 162.261719 136.761719 162.867188 137.136719 163.621094 137.886719 C 164.371094 138.648438 163.085938 138.804688 163.015625 139.480469 C 162.941406 140.160156 165.4375 139.410156 167.027344 139.480469 C 168.613281 139.554688 169 139.625 168.925781 138.488281 C 168.84375 137.367188 170.140625 137.886719 170.890625 138.804688 C 171.640625 139.699219 170.285156 139.785156 172.03125 140.53125 C 173.773438 141.292969 172.5625 140.386719 175.507812 142.429688 C 178.464844 144.460938 176.644531 142.574219 177.628906 143.640625 C 178.378906 144.425781 178.984375 143.734375 180.113281 143.058594 C 180.113281 143.058594 180.113281 143.058594 180.125 143.058594 C 180.488281 142.828125 180.910156 142.601562 181.421875 142.429688 C 183.46875 141.742188 179.601562 141.136719 178.765625 140.230469 C 177.929688 139.324219 179.519531 139.179688 181.421875 139.855469 C 183.308594 140.53125 182.863281 138.71875 184.679688 138.648438 C 186.496094 138.574219 187.394531 139.25 186.339844 138.417969 C 185.285156 137.597656 185.40625 135.554688 187.855469 136.074219 C 189.976562 136.53125 188.667969 134.511719 189.164062 134.019531 C 189.671875 133.511719 191.285156 134.320312 191.585938 134.925781 C 191.890625 135.527344 191.792969 135.421875 193.308594 135.226562 C 194.824219 135.019531 194.917969 135.527344 195.632812 134.71875 C 196.335938 133.910156 197.148438 134.320312 197.246094 133.511719 C 197.34375 132.699219 197.453125 131.792969 199.367188 131.902344 C 201.28125 132 204.308594 132.300781 205.121094 131.792969 C 205.933594 131.296875 202.699219 131.394531 202.601562 130.886719 C 202.492188 130.390625 203.703125 129.375 204.515625 129.183594 C 205.328125 128.976562 207.753906 128.878906 207.753906 128.878906 L 208.359375 127.769531 C 208.359375 127.769531 206.84375 126.558594 208.25 125.859375 C 209.664062 125.144531 209.761719 125.253906 210.976562 125.859375 C 212.1875 126.460938 212.597656 127.671875 214.003906 127.769531 C 215.421875 127.863281 218.453125 129.582031 217.035156 128.167969 C 215.628906 126.765625 215.023438 125.75 215.117188 125.351562 C 215.214844 124.953125 216.429688 125.652344 217.542969 125.351562 C 218.65625 125.046875 219.664062 125.351562 220.171875 124.648438 C 220.667969 123.9375 221.273438 124.140625 221.273438 125.144531 C 221.273438 126.160156 221.785156 123.441406 222.484375 122.425781 C 223.203125 121.421875 224.207031 120.007812 225.417969 121.421875 C 226.628906 122.835938 229.5625 122.632812 228.65625 124.140625 C 227.746094 125.652344 229.5625 127.671875 230.773438 127.164062 C 231.984375 126.65625 231.078125 127.464844 234.109375 128.371094 C 237.136719 129.277344 234.90625 130.886719 237.230469 131.296875 C 239.558594 131.695312 240.769531 130.1875 240.46875 133.003906 C 240.164062 135.832031 241.777344 134.320312 243.195312 136.132812 C 244.601562 137.945312 245.921875 138.648438 246.828125 142.78125 C 247.738281 146.902344 249.046875 145.996094 248.648438 148.21875 C 248.234375 150.433594 250.464844 153.25 249.859375 155.472656 C 249.253906 157.6875 250.355469 159.292969 249.859375 159.800781 C 249.351562 160.308594 249.144531 159.703125 247.835938 162.011719 C 246.527344 164.332031 247.835938 166.75 246.019531 167.355469 C 244.199219 167.960938 243.292969 169.167969 242.890625 170.171875 C 242.480469 171.1875 244.105469 169.375 245.207031 168.867188 C 246.320312 168.359375 248.234375 167.753906 248.34375 166.351562 C 248.441406 164.9375 248.007812 163.414062 248.539062 162.917969 C 250.054688 161.515625 249.75 162.316406 250.863281 160.40625 C 251.980469 158.496094 251.375 158.992188 251.566406 157.382812 C 251.773438 155.777344 249.351562 155.96875 250.960938 153.855469 C 252.585938 151.738281 250.160156 152.753906 250.355469 151.242188 C 250.5625 149.730469 249.449219 148.824219 249.652344 148.113281 C 249.859375 147.410156 251.472656 145.898438 250.464844 144.484375 C 249.449219 143.082031 247.933594 142.671875 249.144531 142.175781 C 250.355469 141.667969 252.683594 141.875 251.675781 140.761719 Z M 242.09375 166.914062 C 244.277344 163.328125 245.5625 159.527344 245.808594 155.929688 C 245.808594 155.878906 245.773438 155.835938 245.726562 155.832031 C 245.671875 155.828125 245.632812 155.859375 245.625 155.910156 C 245.332031 158.050781 244.851562 159.871094 244.164062 161.472656 C 243.972656 162.054688 243.695312 162.617188 243.425781 163.160156 C 243.277344 163.460938 243.121094 163.777344 242.984375 164.085938 C 242.609375 164.789062 242.191406 165.488281 241.789062 166.164062 L 241.546875 166.570312 C 239.445312 169.808594 236.863281 172.667969 233.875 175.074219 C 230.964844 177.492188 227.644531 179.457031 224.007812 180.914062 C 220.578125 182.292969 216.816406 183.257812 212.835938 183.785156 C 212.785156 183.792969 212.75 183.835938 212.757812 183.882812 C 212.761719 183.929688 212.804688 183.964844 212.851562 183.964844 C 216.894531 183.667969 220.734375 182.84375 224.246094 181.511719 C 227.835938 180.179688 231.246094 178.21875 234.375 175.683594 C 237.523438 173.074219 240.121094 170.125 242.09375 166.914062 Z M 207.207031 145.9375 C 207.175781 145.902344 207.121094 145.898438 207.082031 145.929688 C 207.046875 145.960938 207.039062 146.015625 207.070312 146.054688 C 208.199219 147.59375 209.074219 149.195312 209.664062 150.816406 C 210.308594 152.574219 210.667969 154.34375 210.726562 156.070312 C 210.832031 157.742188 210.679688 159.492188 210.261719 161.433594 C 209.921875 163.007812 209.367188 164.703125 208.574219 166.617188 C 208.554688 166.660156 208.574219 166.710938 208.617188 166.730469 C 208.628906 166.738281 208.640625 166.742188 208.65625 166.742188 C 208.6875 166.742188 208.71875 166.726562 208.734375 166.695312 C 210.683594 163.40625 211.667969 159.621094 211.511719 156.03125 C 211.390625 154.054688 210.96875 152.21875 210.265625 150.578125 C 209.515625 148.820312 208.484375 147.257812 207.207031 145.9375 Z M 207.863281 134.984375 C 207.808594 134.972656 207.769531 135.007812 207.757812 135.054688 C 207.75 135.101562 207.78125 135.148438 207.828125 135.160156 C 212.03125 136.117188 215.355469 137.585938 217.992188 139.644531 C 220.882812 141.894531 223.085938 145.078125 224.183594 148.609375 C 225.246094 151.808594 225.609375 155.511719 225.265625 159.613281 C 225.113281 161.449219 224.808594 163.304688 224.359375 165.128906 C 223.957031 166.765625 223.421875 168.671875 222.460938 170.382812 C 222.4375 170.425781 222.453125 170.480469 222.496094 170.507812 C 222.507812 170.515625 222.523438 170.519531 222.539062 170.519531 C 222.570312 170.519531 222.601562 170.503906 222.621094 170.472656 C 224.308594 167.636719 225.355469 164.207031 225.910156 159.675781 C 226.355469 155.613281 226.027344 151.808594 224.933594 148.367188 C 223.714844 144.621094 221.386719 141.339844 218.382812 139.132812 C 215.644531 137.085938 212.105469 135.691406 207.863281 134.984375 Z M 219.417969 135.527344 C 217.378906 134.152344 215.039062 133.035156 212.269531 132.113281 C 212.222656 132.101562 212.175781 132.121094 212.15625 132.167969 C 212.140625 132.214844 212.160156 132.265625 212.207031 132.285156 C 214.875 133.429688 217.113281 134.660156 219.046875 136.054688 C 221.308594 137.6875 223.125 139.535156 224.445312 141.542969 C 225.855469 143.585938 226.863281 145.964844 227.441406 148.609375 C 227.96875 151.027344 228.121094 153.636719 227.902344 156.367188 C 227.898438 156.417969 227.941406 156.460938 227.988281 156.464844 C 228.03125 156.464844 228.078125 156.433594 228.082031 156.390625 C 228.539062 153.648438 228.539062 150.988281 228.078125 148.484375 C 227.609375 145.886719 226.582031 143.332031 225.097656 141.105469 C 223.617188 138.945312 221.652344 137.015625 219.417969 135.527344 Z M 221.988281 130.917969 C 221.945312 130.890625 221.890625 130.898438 221.859375 130.9375 C 221.832031 130.976562 221.839844 131.03125 221.878906 131.0625 C 223.792969 132.613281 225.53125 134.503906 227.039062 136.679688 C 228.519531 138.835938 229.679688 141.109375 230.492188 143.4375 C 231.335938 145.722656 231.894531 148.214844 232.15625 150.84375 C 232.398438 153.371094 232.34375 155.9375 231.992188 158.480469 C 231.984375 158.527344 232.019531 158.570312 232.066406 158.582031 L 232.085938 158.582031 C 232.125 158.582031 232.160156 158.554688 232.171875 158.511719 C 232.753906 155.960938 232.964844 153.363281 232.800781 150.792969 C 232.648438 148.277344 232.121094 145.714844 231.230469 143.171875 C 230.28125 140.605469 229.046875 138.292969 227.5625 136.304688 C 225.972656 134.152344 224.09375 132.339844 221.988281 130.917969 Z M 234.410156 146.019531 C 234.019531 144.019531 233.289062 141.921875 232.183594 139.609375 C 231.058594 137.398438 229.851562 135.539062 228.496094 133.921875 C 226.789062 131.90625 225.101562 130.476562 223.339844 129.550781 C 223.296875 129.527344 223.242188 129.542969 223.21875 129.585938 C 223.195312 129.625 223.207031 129.679688 223.246094 129.707031 C 224.890625 130.816406 226.441406 132.328125 227.992188 134.324219 C 229.375 136.132812 230.546875 138.027344 231.480469 139.957031 C 232.5 141.980469 233.273438 144.066406 233.777344 146.15625 C 234.351562 148.550781 234.511719 150.703125 234.265625 152.738281 C 234.257812 152.785156 234.289062 152.832031 234.339844 152.839844 L 234.355469 152.839844 C 234.394531 152.839844 234.433594 152.8125 234.445312 152.769531 C 234.910156 150.796875 234.902344 148.527344 234.410156 146.019531 Z M 229.851562 157.957031 C 229.539062 160.308594 228.933594 162.765625 228.058594 165.261719 C 228.042969 165.304688 228.066406 165.355469 228.109375 165.375 C 228.125 165.378906 228.144531 165.382812 228.144531 165.382812 C 228.179688 165.382812 228.210938 165.363281 228.226562 165.328125 C 229.332031 162.890625 230.097656 160.441406 230.492188 158.050781 C 230.902344 155.707031 230.945312 153.132812 230.625 150.390625 C 230.265625 147.773438 229.582031 145.289062 228.597656 143.007812 C 227.605469 140.679688 226.253906 138.496094 224.578125 136.523438 C 224.546875 136.488281 224.492188 136.480469 224.453125 136.511719 C 224.414062 136.539062 224.40625 136.59375 224.433594 136.636719 C 225.894531 138.695312 227.09375 140.921875 227.996094 143.25 C 228.945312 145.707031 229.570312 148.144531 229.847656 150.492188 C 230.183594 152.980469 230.1875 155.492188 229.851562 157.957031 Z M 211.957031 162.738281 C 211.113281 165.875 209.605469 168.9375 207.472656 171.835938 C 207.445312 171.871094 207.449219 171.925781 207.484375 171.957031 C 207.503906 171.972656 207.523438 171.980469 207.546875 171.980469 C 207.570312 171.980469 207.59375 171.96875 207.609375 171.953125 C 209.921875 169.621094 211.6875 166.507812 212.714844 162.945312 C 213.203125 161.085938 213.453125 159.394531 213.480469 157.777344 C 213.511719 155.886719 213.277344 154.152344 212.78125 152.621094 C 212.769531 152.574219 212.722656 152.546875 212.675781 152.5625 C 212.628906 152.574219 212.597656 152.617188 212.605469 152.664062 C 212.882812 154.3125 212.960938 156.023438 212.832031 157.75 C 212.703125 159.523438 212.40625 161.203125 211.957031 162.738281 Z M 218.410156 153.785156 C 217.941406 151.722656 217.050781 149.707031 215.828125 147.957031 C 214.675781 146.292969 213.21875 144.738281 211.5 143.339844 C 211.460938 143.308594 211.410156 143.3125 211.375 143.347656 C 211.34375 143.382812 211.34375 143.4375 211.378906 143.472656 C 213.085938 145.242188 214.332031 146.777344 215.289062 148.308594 C 216.476562 150.199219 217.265625 152.097656 217.640625 153.953125 C 218.078125 155.859375 218.125 157.90625 217.777344 160.046875 C 217.472656 161.9375 216.847656 163.863281 215.867188 165.933594 C 215.847656 165.976562 215.859375 166.03125 215.90625 166.054688 C 215.917969 166.058594 215.933594 166.066406 215.949219 166.066406 C 215.980469 166.066406 216.007812 166.050781 216.027344 166.023438 C 217.183594 164.191406 217.984375 162.21875 218.414062 160.164062 C 218.847656 158.101562 218.847656 155.898438 218.410156 153.785156 Z M 216.800781 167.660156 C 215.929688 169.234375 214.800781 170.839844 213.347656 172.566406 C 213.316406 172.601562 213.320312 172.65625 213.355469 172.691406 C 213.371094 172.707031 213.394531 172.714844 213.417969 172.714844 C 213.441406 172.714844 213.460938 172.707031 213.480469 172.691406 C 214.992188 171.292969 216.296875 169.707031 217.359375 167.984375 C 218.359375 166.382812 219.164062 164.480469 219.753906 162.332031 C 220.78125 158.199219 220.632812 153.90625 219.320312 150.246094 C 219.304688 150.203125 219.253906 150.175781 219.210938 150.191406 C 219.164062 150.203125 219.136719 150.25 219.148438 150.296875 C 219.601562 152.347656 219.8125 154.351562 219.777344 156.25 C 219.742188 158.367188 219.476562 160.351562 218.988281 162.136719 C 218.511719 164.058594 217.777344 165.917969 216.800781 167.660156 Z M 219.058594 145.324219 C 219.03125 145.28125 218.976562 145.273438 218.9375 145.296875 C 218.894531 145.324219 218.882812 145.375 218.902344 145.417969 C 220.8125 148.980469 221.730469 153.027344 221.554688 157.117188 C 221.511719 159.03125 221.191406 161.039062 220.613281 163.082031 C 220.085938 164.9375 219.296875 166.828125 218.273438 168.703125 C 218.25 168.746094 218.265625 168.796875 218.304688 168.824219 C 218.320312 168.832031 218.335938 168.839844 218.351562 168.839844 C 218.382812 168.839844 218.410156 168.824219 218.425781 168.800781 C 220.777344 165.542969 222.167969 161.402344 222.34375 157.144531 C 222.46875 152.703125 221.300781 148.503906 219.058594 145.324219 Z M 223.199219 160.097656 C 222.929688 162.027344 222.425781 163.667969 221.65625 165.121094 C 221.636719 165.164062 221.648438 165.214844 221.691406 165.238281 C 221.707031 165.25 221.722656 165.253906 221.738281 165.253906 C 221.765625 165.253906 221.792969 165.238281 221.8125 165.214844 C 222.765625 163.902344 223.449219 162.214844 223.839844 160.203125 C 224.148438 158.613281 224.238281 156.839844 224.105469 154.777344 C 223.917969 152.777344 223.570312 151.039062 223.039062 149.460938 C 222.359375 147.457031 221.519531 145.902344 220.46875 144.710938 C 220.4375 144.671875 220.378906 144.667969 220.34375 144.695312 C 220.304688 144.726562 220.296875 144.777344 220.324219 144.816406 C 221.195312 146.140625 221.882812 147.722656 222.421875 149.648438 C 222.910156 151.425781 223.210938 153.171875 223.320312 154.839844 C 223.480469 156.617188 223.441406 158.386719 223.199219 160.097656 Z M 236.113281 168.492188 C 234.316406 171.085938 232.105469 173.402344 229.535156 175.375 C 227.027344 177.296875 224.207031 178.855469 221.144531 180.011719 C 221.097656 180.03125 221.074219 180.082031 221.089844 180.128906 C 221.105469 180.164062 221.140625 180.1875 221.179688 180.1875 L 221.203125 180.183594 C 224.390625 179.226562 227.328125 177.78125 229.921875 175.894531 C 232.484375 174.042969 234.785156 171.703125 236.757812 168.941406 C 238.644531 166.214844 240.097656 163.277344 241.074219 160.210938 C 242.078125 157.089844 242.597656 153.867188 242.625 150.636719 C 242.625 150.585938 242.585938 150.546875 242.535156 150.542969 C 242.488281 150.542969 242.449219 150.582031 242.445312 150.628906 C 242.199219 153.785156 241.535156 156.941406 240.464844 160.003906 C 239.347656 163.160156 237.882812 166.011719 236.113281 168.492188 Z M 238.652344 151.78125 C 238.042969 156.910156 236.609375 161.460938 234.390625 165.308594 C 232.023438 169.523438 228.597656 172.980469 224.484375 175.304688 C 220.707031 177.480469 216.125 178.90625 210.867188 179.554688 C 210.816406 179.5625 210.78125 179.605469 210.789062 179.652344 C 210.792969 179.699219 210.835938 179.734375 210.882812 179.734375 C 213.8125 179.464844 216.027344 179.101562 218.042969 178.5625 C 220.496094 177.882812 222.769531 176.972656 224.800781 175.867188 C 229.003906 173.601562 232.554688 170.085938 235.074219 165.695312 C 237.375 161.609375 238.796875 156.953125 239.296875 151.851562 C 239.785156 146.761719 239.425781 141.917969 238.230469 137.464844 C 238.214844 137.417969 238.164062 137.386719 238.121094 137.402344 C 238.074219 137.414062 238.042969 137.460938 238.054688 137.507812 C 238.5625 139.78125 238.859375 142.179688 238.929688 144.628906 C 239.027344 147.054688 238.933594 149.460938 238.652344 151.78125 Z M 236.1875 150.367188 C 236.019531 153.6875 235.351562 156.898438 234.195312 159.914062 C 233.074219 162.96875 231.453125 165.820312 229.382812 168.390625 C 227.3125 170.953125 224.839844 173.140625 222.039062 174.882812 C 221.996094 174.910156 221.984375 174.964844 222.007812 175.007812 C 222.023438 175.035156 222.054688 175.050781 222.085938 175.050781 C 222.101562 175.050781 222.117188 175.046875 222.128906 175.042969 C 225.0625 173.480469 227.742188 171.324219 229.878906 168.804688 C 231.984375 166.34375 233.683594 163.445312 234.933594 160.1875 C 236.128906 156.921875 236.765625 153.625 236.832031 150.390625 C 236.90625 146.808594 236.308594 143.523438 235.042969 140.625 C 235.027344 140.582031 234.972656 140.558594 234.925781 140.578125 C 234.882812 140.597656 234.859375 140.648438 234.875 140.691406 C 235.90625 143.574219 236.347656 146.828125 236.1875 150.367188 Z M 234.585938 180.050781 C 234.558594 180.007812 234.503906 179.996094 234.464844 180.019531 C 232.832031 180.910156 231.296875 181.59375 229.765625 182.109375 C 228.015625 182.757812 226.21875 183.261719 224.851562 183.628906 C 221.617188 184.480469 218.222656 185.179688 214.757812 185.71875 C 211.742188 186.230469 208.492188 186.644531 204.523438 187.03125 C 200.832031 187.382812 197.460938 187.605469 194.214844 187.714844 C 194.164062 187.714844 194.125 187.753906 194.125 187.804688 C 194.125 187.851562 194.164062 187.890625 194.214844 187.894531 C 195.199219 187.925781 196.199219 187.941406 197.207031 187.941406 C 199.621094 187.941406 202.085938 187.851562 204.578125 187.675781 C 207.832031 187.449219 211.203125 187.0625 214.886719 186.492188 C 218.988281 185.796875 222.113281 185.101562 225.023438 184.25 C 229.097656 183.046875 232.039062 181.789062 234.554688 180.171875 C 234.597656 180.148438 234.609375 180.09375 234.585938 180.050781 Z M 206.027344 158.554688 C 205.738281 161.714844 204.5625 164.773438 202.625 167.402344 C 202.597656 167.441406 202.601562 167.492188 202.640625 167.523438 C 202.65625 167.539062 202.675781 167.546875 202.699219 167.546875 C 202.722656 167.546875 202.746094 167.539062 202.761719 167.519531 C 204.988281 165.320312 206.425781 162.164062 206.8125 158.628906 C 206.964844 156.847656 206.863281 155.175781 206.515625 153.671875 C 206.109375 151.910156 205.425781 150.394531 204.488281 149.167969 C 204.460938 149.132812 204.410156 149.121094 204.367188 149.148438 C 204.328125 149.171875 204.3125 149.226562 204.335938 149.265625 C 205.085938 150.640625 205.605469 152.164062 205.882812 153.796875 C 206.15625 155.433594 206.203125 157.03125 206.027344 158.554688 Z M 190.097656 174.988281 C 192.996094 173.417969 195.511719 171.609375 197.578125 169.621094 C 199.976562 167.316406 201.761719 164.765625 202.878906 162.042969 C 204.089844 158.980469 204.347656 155.710938 203.597656 152.839844 C 202.878906 150.039062 201.308594 147.375 198.925781 144.929688 C 198.890625 144.894531 198.835938 144.894531 198.800781 144.925781 C 198.761719 144.957031 198.761719 145.015625 198.792969 145.050781 C 200.949219 147.617188 202.355469 150.289062 202.96875 152.988281 C 203.609375 155.808594 203.316406 158.921875 202.144531 161.75 C 201.164062 164.257812 199.476562 166.75 197.121094 169.164062 C 195.132812 171.1875 192.804688 173.042969 190.003906 174.832031 C 189.960938 174.859375 189.949219 174.914062 189.972656 174.957031 C 189.992188 174.984375 190.023438 175 190.050781 175 C 190.066406 175 190.082031 174.996094 190.097656 174.988281 Z M 187.796875 175.089844 C 190.691406 173.523438 193.199219 171.738281 195.253906 169.792969 C 197.667969 167.515625 199.464844 165 200.601562 162.316406 C 201.839844 159.277344 202.113281 156.03125 201.359375 153.183594 C 200.648438 150.417969 199.082031 147.777344 196.703125 145.332031 C 196.671875 145.296875 196.613281 145.296875 196.578125 145.328125 C 196.542969 145.363281 196.539062 145.417969 196.570312 145.453125 C 198.71875 148.019531 200.121094 150.671875 200.730469 153.332031 C 201.371094 156.128906 201.066406 159.214844 199.871094 162.019531 C 198.863281 164.519531 197.207031 166.910156 194.804688 169.332031 C 192.820312 171.3125 190.496094 173.144531 187.707031 174.933594 C 187.664062 174.960938 187.652344 175.015625 187.675781 175.054688 C 187.691406 175.085938 187.722656 175.101562 187.753906 175.101562 C 187.769531 175.101562 187.785156 175.097656 187.796875 175.089844 Z M 192.628906 169.621094 C 195.027344 167.316406 196.8125 164.765625 197.929688 162.042969 C 199.144531 158.980469 199.398438 155.714844 198.652344 152.839844 C 197.933594 150.039062 196.359375 147.378906 193.976562 144.929688 C 193.945312 144.894531 193.886719 144.890625 193.851562 144.925781 C 193.816406 144.957031 193.8125 145.015625 193.84375 145.050781 C 196 147.617188 197.40625 150.289062 198.023438 152.988281 C 198.660156 155.808594 198.367188 158.921875 197.199219 161.75 C 196.21875 164.261719 194.527344 166.753906 192.175781 169.164062 C 190.179688 171.1875 187.851562 173.042969 185.054688 174.832031 C 185.015625 174.859375 185 174.914062 185.027344 174.957031 C 185.042969 174.984375 185.074219 175 185.105469 175 C 185.121094 175 185.132812 174.996094 185.148438 174.988281 C 188.046875 173.417969 190.566406 171.609375 192.628906 169.621094 Z M 114.34375 157.535156 C 114.34375 157.785156 114.589844 157.988281 114.898438 157.988281 C 115.203125 157.988281 115.453125 157.785156 115.453125 157.535156 C 115.453125 157.285156 115.203125 157.082031 114.898438 157.082031 C 114.589844 157.082031 114.34375 157.285156 114.34375 157.535156 Z M 115.25 153.050781 C 115.25 153.609375 115.5 154.058594 115.808594 154.058594 C 116.113281 154.058594 116.363281 153.609375 116.363281 153.050781 C 116.363281 152.496094 116.113281 152.042969 115.808594 152.042969 C 115.5 152.042969 115.25 152.496094 115.25 153.050781 Z M 116.261719 156.125 C 116.261719 156.652344 116.625 157.082031 117.070312 157.082031 C 117.515625 157.082031 117.878906 156.652344 117.878906 156.125 C 117.878906 155.597656 117.515625 155.167969 117.070312 155.167969 C 116.625 155.167969 116.261719 155.597656 116.261719 156.125 Z M 117.675781 152.648438 C 117.675781 153.316406 118.21875 153.859375 118.886719 153.859375 C 119.554688 153.859375 120.097656 153.316406 120.097656 152.648438 C 120.097656 151.980469 119.554688 151.441406 118.886719 151.441406 C 118.21875 151.441406 117.675781 151.980469 117.675781 152.648438 Z M 118.582031 147.210938 C 118.582031 147.433594 118.789062 147.613281 119.039062 147.613281 C 119.289062 147.613281 119.492188 147.433594 119.492188 147.210938 C 119.492188 146.988281 119.289062 146.804688 119.039062 146.804688 C 118.789062 146.804688 118.582031 146.988281 118.582031 147.210938 Z M 120.804688 150.03125 C 120.804688 150.308594 121.03125 150.535156 121.308594 150.535156 C 121.589844 150.535156 121.816406 150.308594 121.816406 150.03125 C 121.816406 149.75 121.589844 149.527344 121.308594 149.527344 C 121.03125 149.527344 120.804688 149.75 120.804688 150.03125 Z M 123.9375 144.589844 C 123.9375 144.925781 124.183594 145.195312 124.492188 145.195312 C 124.796875 145.195312 125.046875 144.925781 125.046875 144.589844 C 125.046875 144.257812 124.796875 143.984375 124.492188 143.984375 C 124.183594 143.984375 123.9375 144.257812 123.9375 144.589844 Z M 133.628906 134.515625 C 133.628906 134.683594 133.878906 134.820312 134.183594 134.820312 C 134.492188 134.820312 134.742188 134.683594 134.742188 134.515625 C 134.742188 134.351562 134.492188 134.214844 134.183594 134.214844 C 133.878906 134.214844 133.628906 134.351562 133.628906 134.515625 Z M 139.6875 147.058594 C 139.6875 147.308594 139.9375 147.511719 140.242188 147.511719 C 140.550781 147.511719 140.800781 147.308594 140.800781 147.058594 C 140.800781 146.808594 140.550781 146.605469 140.242188 146.605469 C 139.9375 146.605469 139.6875 146.808594 139.6875 147.058594 Z M 142.3125 143.632812 C 142.3125 143.996094 142.585938 144.289062 142.917969 144.289062 C 143.253906 144.289062 143.527344 143.996094 143.527344 143.632812 C 143.527344 143.273438 143.253906 142.980469 142.917969 142.980469 C 142.585938 142.980469 142.3125 143.273438 142.3125 143.632812 Z M 171.292969 125.402344 C 171.292969 125.761719 171.609375 126.054688 172 126.054688 C 172.390625 126.054688 172.707031 125.761719 172.707031 125.402344 C 172.707031 125.039062 172.390625 124.746094 172 124.746094 C 171.609375 124.746094 171.292969 125.039062 171.292969 125.402344 Z M 178.667969 131.292969 C 177.886719 131.292969 177.253906 131.878906 177.253906 132.601562 C 177.253906 133.328125 177.886719 133.914062 178.667969 133.914062 C 179.445312 133.914062 180.078125 133.328125 180.078125 132.601562 C 180.078125 131.878906 179.445312 131.292969 178.667969 131.292969 Z M 179.976562 135.421875 C 179.976562 135.703125 180.273438 135.925781 180.636719 135.925781 C 180.996094 135.925781 181.292969 135.703125 181.292969 135.421875 C 181.292969 135.144531 180.996094 134.921875 180.636719 134.921875 C 180.273438 134.921875 179.976562 135.144531 179.976562 135.421875 Z M 181.796875 129.933594 C 181.796875 130.074219 181.953125 130.1875 182.148438 130.1875 C 182.34375 130.1875 182.503906 130.074219 182.503906 129.933594 C 182.503906 129.796875 182.34375 129.683594 182.148438 129.683594 C 181.953125 129.683594 181.796875 129.796875 181.796875 129.933594 Z M 182.90625 127.515625 C 182.90625 128.101562 183.382812 128.574219 183.96875 128.574219 C 184.554688 128.574219 185.027344 128.101562 185.027344 127.515625 C 185.027344 126.933594 184.554688 126.460938 183.96875 126.460938 C 183.382812 126.460938 182.90625 126.933594 182.90625 127.515625 Z M 189.066406 123.285156 C 189.066406 123.59375 189.449219 123.839844 189.925781 123.839844 C 190.398438 123.839844 190.785156 123.59375 190.785156 123.285156 C 190.785156 122.980469 190.398438 122.730469 189.925781 122.730469 C 189.449219 122.730469 189.066406 122.980469 189.066406 123.285156 Z M 244.199219 183.671875 C 218.753906 196.160156 139.785156 189.921875 115.355469 187.09375 C 124.382812 186.695312 152.253906 189.414062 164.082031 188.8125 C 152.253906 187.152344 106.570312 183.976562 93.847656 184.375 C 106.460938 182.367188 166.746094 187.808594 170.988281 186.394531 C 148.375 184.484375 100.511719 180.144531 80.519531 182.671875 C 101.519531 177.53125 163.414062 185.886719 172.246094 180.507812 C 167.714844 181.207031 151.078125 181.871094 143.929688 180.75 C 150.847656 180.554688 163.570312 180.09375 168.46875 177.933594 C 126.054688 182.671875 87.789062 172.699219 70.316406 174.511719 C 85.667969 171.984375 150.289062 182.257812 175.035156 173.796875 C 197.949219 165.957031 190.621094 147.75 180.828125 143.359375 C 180.703125 143.425781 180.578125 143.488281 180.449219 143.570312 C 180.421875 143.585938 180.390625 143.601562 180.363281 143.613281 C 180.1875 143.722656 180.023438 143.828125 179.871094 143.929688 C 179.105469 144.433594 178.152344 145.066406 177.1875 144.058594 L 177.164062 144.03125 C 176.785156 143.980469 176.21875 143.65625 175.164062 142.929688 C 173.234375 141.589844 173.164062 141.570312 172.859375 141.484375 C 172.660156 141.425781 172.382812 141.347656 171.789062 141.085938 C 170.851562 140.683594 170.34375 140.292969 170.515625 139.476562 C 170.542969 139.347656 170.546875 139.335938 170.425781 139.191406 C 170.117188 138.816406 169.757812 138.582031 169.535156 138.496094 C 169.558594 138.957031 169.53125 139.417969 169.203125 139.753906 C 168.789062 140.167969 168.195312 140.140625 167.207031 140.09375 L 166.996094 140.085938 C 166.421875 140.058594 165.683594 140.152344 165.03125 140.238281 C 163.847656 140.390625 163.066406 140.488281 162.644531 140.078125 C 162.46875 139.90625 162.382812 139.671875 162.410156 139.417969 C 162.464844 138.90625 162.835938 138.59375 163.082031 138.386719 C 163.109375 138.363281 163.140625 138.335938 163.171875 138.308594 C 162.597656 137.734375 162.410156 137.691406 162.378906 137.6875 C 162.320312 137.878906 162.265625 138.0625 162.203125 138.246094 C 162 138.847656 161.609375 139.96875 160.316406 139.683594 C 159.5625 139.535156 158.832031 140.199219 158.152344 140.941406 C 157.785156 141.351562 157.1875 141.617188 156.660156 141.847656 C 156.464844 141.9375 156.195312 142.054688 156.023438 142.152344 C 157.382812 143.523438 157.898438 144.230469 157.527344 144.828125 C 157.164062 145.417969 156.355469 145.148438 156.011719 145.035156 C 154.820312 144.636719 154.183594 144.601562 153.945312 144.636719 C 153.90625 144.738281 153.847656 144.835938 153.785156 144.898438 C 153.53125 145.140625 153.199219 145.132812 152.886719 145.125 C 152.671875 145.117188 152.324219 145.105469 152.230469 145.210938 C 152.210938 145.234375 152.105469 145.378906 152.175781 145.890625 C 152.28125 146.660156 152.28125 147.335938 152.28125 147.832031 C 152.28125 147.894531 152.28125 147.960938 152.28125 148.027344 C 153.351562 147.375 154.210938 148.359375 154.628906 148.84375 C 154.738281 148.96875 154.894531 149.148438 154.996094 149.234375 C 155.371094 149.097656 155.660156 149.242188 155.816406 149.433594 C 156.207031 149.921875 155.769531 150.605469 155.472656 150.96875 C 154.8125 151.78125 153.96875 152.070312 153.277344 151.722656 C 153.007812 151.589844 152.765625 151.433594 152.542969 151.289062 C 152.371094 151.175781 152.042969 150.972656 151.980469 150.988281 C 151.980469 150.988281 151.859375 151.019531 151.636719 151.367188 C 151.339844 151.820312 150.980469 152.261719 150.429688 152.273438 C 149.871094 152.261719 149.578125 151.777344 149.292969 151.304688 C 149.195312 151.144531 149.085938 150.964844 148.957031 150.78125 C 148.71875 150.433594 148.570312 150.050781 148.4375 149.707031 C 148.390625 149.585938 148.328125 149.421875 148.269531 149.296875 C 148.210938 149.351562 148.125 149.433594 148.015625 149.554688 C 147.535156 150.085938 147.429688 150.488281 147.335938 150.84375 C 147.164062 151.492188 146.945312 152.007812 145.871094 152.234375 C 145.1875 152.375 144.789062 152.648438 144.628906 152.816406 C 145.136719 153.199219 145.621094 153.929688 145.363281 154.515625 C 145.242188 154.796875 144.875 155.226562 143.839844 154.945312 C 143.679688 154.898438 143.613281 154.90625 143.597656 154.90625 C 143.621094 154.90625 143.582031 154.980469 143.554688 155.03125 C 143.402344 155.332031 143.039062 156.039062 141.90625 155.785156 C 141.507812 155.699219 141.207031 155.605469 140.96875 155.53125 C 140.808594 155.480469 140.601562 155.371094 140.550781 155.421875 C 140.550781 155.421875 140.503906 155.449219 140.371094 155.597656 C 140.09375 155.910156 139.773438 156.050781 139.515625 156.167969 C 139.085938 156.359375 138.714844 156.527344 138.382812 157.703125 C 138.160156 158.476562 138.113281 159.21875 138.070312 159.871094 C 138 160.976562 137.933594 162.023438 136.996094 162.648438 C 136.8125 162.769531 136.675781 162.871094 136.566406 162.953125 C 135.675781 163.617188 135.304688 163.242188 134.714844 162.523438 C 134.585938 162.367188 134.425781 162.171875 134.222656 161.933594 C 133.730469 161.351562 133.386719 161.25 133.085938 161.160156 C 132.542969 161 132.082031 160.777344 131.972656 159.703125 C 131.960938 159.585938 131.949219 159.484375 131.941406 159.390625 C 131.738281 159.445312 131.480469 159.503906 131.152344 159.5625 C 130.054688 159.757812 129.269531 159.136719 128.753906 158.726562 C 128.65625 158.648438 128.539062 158.558594 128.449219 158.496094 C 128.441406 158.511719 128.429688 158.527344 128.421875 158.546875 C 127.867188 159.722656 126.308594 160.933594 125.367188 160.621094 C 125.011719 160.503906 124.648438 160.125 124.785156 159.449219 C 124.839844 159.164062 124.941406 158.847656 125.042969 158.554688 C 124.359375 158.894531 123.785156 158.789062 123.402344 158.65625 C 123.402344 158.707031 123.402344 158.761719 123.402344 158.820312 C 123.402344 161.070312 122.707031 161.511719 121.25 161.613281 C 120.960938 161.632812 120.441406 161.949219 120.269531 162.46875 C 120.050781 163.125 120.546875 163.71875 120.996094 164.105469 C 121.214844 164.285156 121.875 164.84375 121.804688 165.5625 C 121.730469 166.269531 121.042969 166.648438 120.4375 166.976562 C 119.996094 167.21875 119.449219 167.515625 119.464844 167.785156 C 119.523438 169.027344 118.851562 170.199219 117.992188 170.335938 C 117.753906 170.375 116.960938 170.40625 116.617188 169.1875 C 116.425781 168.535156 115.335938 167.949219 114.542969 167.523438 C 113.871094 167.160156 113.265625 166.835938 113.074219 166.394531 C 112.996094 166.398438 112.914062 166.402344 112.84375 166.40625 C 112.136719 166.449219 111.253906 166.503906 110.835938 165.878906 C 110.578125 165.496094 110.597656 164.988281 110.898438 164.371094 C 112.035156 162.003906 111.769531 161.585938 111.753906 161.5625 C 111.753906 161.5625 111.71875 161.546875 111.625 161.539062 C 110.441406 161.457031 109.285156 161.277344 108.808594 160.507812 C 108.640625 160.234375 108.492188 159.769531 108.761719 159.121094 C 108.96875 158.605469 109.386719 158.160156 109.828125 157.6875 C 110.8125 156.640625 111.21875 156.050781 110.695312 155.210938 C 110.492188 154.878906 110.355469 154.664062 110.261719 154.519531 C 110.046875 154.195312 109.847656 153.890625 110.117188 153.480469 C 110.128906 153.457031 110.246094 153.214844 110.160156 152.058594 C 110.066406 150.859375 110.167969 149.96875 110.238281 149.320312 C 110.359375 148.273438 110.335938 148.171875 109.925781 147.933594 C 109.550781 147.714844 109.085938 147.582031 108.675781 147.464844 C 108.003906 147.273438 107.367188 147.09375 107.132812 146.523438 C 106.992188 146.183594 107.042969 145.796875 107.277344 145.375 C 107.449219 145.074219 107.691406 144.730469 107.953125 144.359375 C 108.644531 143.382812 109.503906 142.167969 109.046875 141.46875 C 108.445312 140.582031 108.910156 139.554688 109.320312 138.648438 C 109.824219 137.535156 110.007812 136.964844 109.519531 136.519531 C 107.90625 135.070312 107.285156 134.414062 108.082031 132.71875 C 108.28125 132.296875 108.519531 131.542969 108.769531 130.738281 C 109.261719 129.15625 109.824219 127.367188 110.558594 126.554688 C 111.484375 125.550781 114.148438 124.453125 116.570312 123.503906 L 117.144531 123.277344 C 120.425781 122.015625 125.804688 121.179688 130.675781 120.652344 C 136.484375 119.722656 143.648438 119.132812 151.078125 119.824219 C 149.414062 120.707031 147.769531 121.628906 146.167969 122.613281 C 142.140625 125.089844 138.304688 127.851562 134.628906 130.796875 C 127.472656 136.554688 120.878906 142.980469 114.929688 149.945312 C 114.933594 149.90625 114.949219 149.871094 114.949219 149.828125 C 114.949219 149.382812 114.65625 149.023438 114.292969 149.023438 C 113.929688 149.023438 113.636719 149.382812 113.636719 149.828125 C 113.636719 150.273438 113.929688 150.632812 114.292969 150.632812 C 114.613281 150.632812 114.867188 150.347656 114.925781 149.972656 C 121.023438 143.128906 127.753906 136.855469 135 131.273438 C 138.726562 128.417969 142.597656 125.757812 146.636719 123.390625 C 149.144531 121.921875 151.730469 120.585938 154.378906 119.398438 C 161.1875 117.113281 168.65625 116.019531 176.871094 116.671875 C 170.757812 118.949219 164.996094 122.082031 159.558594 125.605469 C 152.121094 130.445312 145.230469 136.039062 138.628906 141.917969 C 145.363281 136.191406 152.375 130.761719 159.882812 126.117188 C 166.65625 121.941406 173.886719 118.394531 181.535156 116.339844 C 186.207031 115.488281 191.199219 115.136719 196.679688 115.304688 C 193.636719 116.53125 190.710938 118.011719 187.875 119.625 C 183.273438 122.277344 178.886719 125.304688 174.90625 128.796875 C 179.015625 125.457031 183.5 122.613281 188.167969 120.152344 C 192.441406 117.929688 196.910156 116.019531 201.542969 114.828125 C 203.503906 114.484375 205.476562 114.300781 207.441406 114.269531 C 206.261719 114.828125 205.097656 115.417969 203.953125 116.035156 C 202.609375 116.761719 201.285156 117.519531 199.992188 118.332031 C 198.710938 119.152344 197.417969 119.996094 196.335938 121.070312 C 197.488281 120.070312 198.820312 119.324219 200.144531 118.59375 C 201.480469 117.871094 202.84375 117.207031 204.222656 116.574219 C 205.601562 115.945312 207 115.347656 208.410156 114.808594 C 209.085938 114.550781 209.765625 114.304688 210.449219 114.074219 C 231.464844 108.429688 260.996094 113.851562 268.640625 129.277344 C 277.316406 146.804688 269.648438 171.1875 244.199219 183.671875 Z M 139.078125 151.132812 C 139.058594 151.105469 139.046875 151.078125 139.03125 151.050781 C 139.035156 151.085938 139.058594 151.105469 139.078125 151.132812 Z M 116.429688 161.589844 C 116.402344 161.625 116.386719 161.664062 116.355469 161.691406 C 116.445312 161.710938 116.53125 161.734375 116.621094 161.765625 C 116.554688 161.714844 116.492188 161.65625 116.429688 161.589844 Z M 110.742188 159.390625 C 110.753906 159.34375 110.761719 159.300781 110.785156 159.257812 C 110.746094 159.320312 110.730469 159.363281 110.742188 159.390625 Z M 111.128906 158.957031 C 111 159.023438 110.894531 159.101562 110.820312 159.199219 C 110.878906 159.121094 110.976562 159.011719 111.105469 158.882812 C 111.109375 158.910156 111.121094 158.933594 111.128906 158.957031 " fill-opacity="1" fill-rule="nonzero"/></g></svg>